<svg width="663" height="390" viewBox="0 0 663 390" fill="none" xmlns="http://www.w3.org/2000/svg">
<g clip-path="url(#clip0)">
<path d="M507.608 385.59C499.12 378.533 493.964 367.385 495.317 356.532C496.669 345.68 505.043 335.703 515.906 333.398C526.769 331.094 539.153 337.473 542.452 347.914C544.268 327.784 546.36 306.812 557.238 289.67C567.087 274.148 584.145 263.041 602.633 261.055C621.121 259.068 640.586 266.572 652.116 280.929C663.646 295.287 666.47 316.159 658.394 332.642C652.445 344.785 641.485 353.822 630.002 361.174C592.895 384.73 548.391 394.309 504.677 388.149L507.608 385.59Z" fill="#00F2FE"/>
<path d="M633.834 266.988C618.579 279.213 604.585 292.886 592.053 307.809C572.44 331.083 556.569 357.178 544.993 385.184C544.146 387.227 547.518 388.116 548.356 386.096C567.296 340.58 597.533 300.463 636.3 269.414C638.041 268.019 635.561 265.605 633.834 266.988Z" fill="#164315"/>
<path d="M475.912 389.146H197.757V108.346C197.757 48.6038 247.156 0 307.876 0H365.793C426.513 0 475.912 48.6038 475.912 108.346V389.146Z" fill="#85AAAC"/>
<path d="M417.995 385.126H197.757V104.326C197.696 81.4336 205.064 59.1203 218.787 40.6342C219.293 39.9558 219.797 39.2862 220.318 38.6239C226.955 30.0582 234.854 22.5146 243.754 16.2419C244.257 15.882 244.762 15.5284 245.274 15.1747C252.721 10.1041 260.777 5.95902 269.258 2.83375C269.762 2.64593 270.274 2.45774 270.787 2.27724C278.458 -0.415983 286.409 -2.26083 294.494 -3.22323C294.995 -3.2906 295.51 -3.34332 296.024 -3.39604C303.903 -4.22492 311.85 -4.22492 319.729 -3.39604C320.242 -3.34332 320.757 -3.29061 321.264 -3.22251C329.347 -2.26005 337.296 -0.415425 344.964 2.27728C345.477 2.45778 345.99 2.64595 346.495 2.83414C354.872 5.91998 362.833 10.0032 370.201 14.9928C370.712 15.3387 371.225 15.6924 371.729 16.0461C376.718 19.5497 381.404 23.4529 385.739 27.716C389.216 31.1354 392.455 34.7803 395.436 38.6261C395.955 39.2862 396.459 39.9559 396.964 40.6332C410.688 59.1194 418.056 81.4331 417.995 104.326V385.126Z" fill="#006267"/>
<path d="M400.086 263.555C406.82 263.555 412.279 258.184 412.279 251.558C412.279 244.932 406.82 239.561 400.086 239.561C393.352 239.561 387.893 244.932 387.893 251.558C387.893 258.184 393.352 263.555 400.086 263.555Z" fill="#00F2FE"/>
<path d="M453.125 380.736H443.782L439.337 345.279L453.127 345.28L453.125 380.736Z" fill="#FFB8B8"/>
<path d="M437.109 378.109H455.127V389.271H425.764C425.764 387.805 426.057 386.354 426.628 385C427.198 383.645 428.033 382.415 429.087 381.378C430.14 380.342 431.391 379.52 432.767 378.959C434.144 378.398 435.619 378.109 437.109 378.109V378.109Z" fill="#2F2E41"/>
<path d="M499.612 380.736H490.269L485.824 345.279L499.613 345.28L499.612 380.736Z" fill="#FFB8B8"/>
<path d="M483.595 378.109H501.613V389.271H472.25C472.25 387.805 472.544 386.354 473.114 385C473.684 383.645 474.52 382.415 475.573 381.378C476.627 380.342 477.877 379.52 479.254 378.959C480.63 378.398 482.105 378.109 483.595 378.109V378.109Z" fill="#2F2E41"/>
<path d="M406.257 253.935C405.585 252.96 405.138 251.853 404.948 250.69C404.758 249.527 404.829 248.338 405.157 247.205C405.485 246.073 406.061 245.025 406.845 244.135C407.629 243.245 408.602 242.535 409.694 242.055L441.454 155.928L457.082 164.32L420.819 246.626C421.517 248.486 421.497 250.533 420.763 252.379C420.029 254.226 418.633 255.743 416.838 256.644C415.043 257.545 412.974 257.767 411.024 257.267C409.074 256.768 407.378 255.582 406.257 253.935V253.935Z" fill="#FFB8B8"/>
<path d="M494.839 270.118C493.801 269.532 492.906 268.73 492.217 267.767C491.528 266.804 491.062 265.704 490.852 264.545C490.642 263.386 490.692 262.195 491 261.057C491.308 259.919 491.866 258.862 492.635 257.959L482.796 166.851L500.581 167.651L504.67 257.267C506.126 258.638 507.02 260.486 507.183 262.462C507.347 264.438 506.768 266.405 505.556 267.989C504.344 269.573 502.584 270.664 500.609 271.057C498.634 271.449 496.581 271.115 494.839 270.118V270.118Z" fill="#FFB8B8"/>
<path d="M466.467 139.975C476.804 139.975 485.184 131.73 485.184 121.56C485.184 111.389 476.804 103.144 466.467 103.144C456.13 103.144 447.75 111.389 447.75 121.56C447.75 131.73 456.13 139.975 466.467 139.975Z" fill="#FFB8B8"/>
<path d="M494.72 249.398H438.291L438.359 248.966C438.46 248.32 448.416 184.154 441.073 163.161C440.336 161.098 440.401 158.84 441.255 156.822C442.109 154.803 443.691 153.166 445.698 152.227H445.698C456.193 147.364 476.339 141.376 493.343 155.908C495.845 158.081 497.799 160.798 499.05 163.842C500.301 166.887 500.815 170.176 500.552 173.45L494.72 249.398Z" fill="#00F2FE"/>
<path d="M449.129 193.636L423.724 188.565L435.632 160.8C436.345 158.111 438.112 155.81 440.547 154.401C442.982 152.993 445.885 152.592 448.62 153.286C451.355 153.981 453.698 155.714 455.136 158.107C456.573 160.499 456.988 163.355 456.289 166.047L449.129 193.636Z" fill="#00F2FE"/>
<path d="M481.666 203.052L480.139 168.605C478.981 162.13 482.748 156.008 488.542 155.008C494.338 154.011 499.998 158.502 501.161 165.025L506.902 197.212L481.666 203.052Z" fill="#00F2FE"/>
<path d="M492.842 245.274C501.922 279.297 502.913 322.555 500.463 369.74L488.27 368.241L466.17 278.265L453.977 369.74L440.259 368.991C436.162 319.482 432.171 276.979 438.735 249.023L492.842 245.274Z" fill="#2F2E41"/>
<path d="M478.8 135.792C475.308 139.451 468.823 137.487 468.368 132.487C468.333 132.099 468.335 131.709 468.376 131.321C468.611 129.106 469.911 127.096 469.6 124.757C469.529 124.175 469.309 123.621 468.959 123.146C466.177 119.48 459.645 124.786 457.019 121.467C455.409 119.432 457.302 116.228 456.066 113.954C454.435 110.952 449.605 112.433 446.575 110.789C443.205 108.96 443.407 103.872 445.625 100.777C448.331 97.0027 453.075 94.9888 457.76 94.6985C462.445 94.4083 467.098 95.6543 471.471 97.3314C476.441 99.2369 481.369 101.87 484.427 106.17C488.146 111.398 488.504 118.427 486.644 124.541C485.512 128.26 481.651 132.803 478.8 135.792Z" fill="#2F2E41"/>
<path d="M640.124 389.629H77.493C77.2528 389.628 77.0227 389.534 76.8531 389.366C76.6835 389.199 76.5882 388.972 76.5882 388.736C76.5882 388.5 76.6835 388.273 76.8531 388.106C77.0227 387.938 77.2528 387.844 77.493 387.843H640.124C640.364 387.844 640.594 387.938 640.764 388.106C640.933 388.273 641.029 388.5 641.029 388.736C641.029 388.972 640.933 389.199 640.764 389.366C640.594 389.534 640.364 389.628 640.124 389.629V389.629Z" fill="#3F3D56"/>
<path d="M357.41 307.793H258.341C257.037 307.8 255.782 307.297 254.854 306.396C253.925 305.494 253.398 304.267 253.388 302.983V85.4137C253.398 84.13 253.925 82.9026 254.854 82.0009C255.782 81.0991 257.037 80.5966 258.341 80.6035H357.41C358.715 80.5966 359.969 81.0991 360.898 82.0009C361.827 82.9026 362.354 84.13 362.364 85.4137V302.983C362.354 304.267 361.827 305.494 360.898 306.396C359.969 307.297 358.715 307.8 357.41 307.793V307.793Z" fill="#E4FFE3"/>
<path d="M362.364 151.002H253.388V152.502H362.364V151.002Z" fill="#CCCCCC"/>
<path d="M362.745 236.562H253.769V238.062H362.745V236.562Z" fill="#CCCCCC"/>
<path d="M289.205 80.6035H287.681V308.543H289.205V80.6035Z" fill="#CCCCCC"/>
<path d="M327.309 80.6035H325.784V308.543H327.309V80.6035Z" fill="#CCCCCC"/>
<path d="M223.415 385.932C235.074 376.239 242.155 360.928 240.298 346.022C238.441 331.115 226.939 317.412 212.018 314.247C197.098 311.082 180.089 319.844 175.558 334.184C173.064 306.536 170.19 277.73 155.25 254.186C141.722 232.867 118.292 217.612 92.8989 214.883C67.506 212.154 40.7704 222.461 24.9337 242.181C9.09706 261.901 5.21951 290.569 16.3111 313.209C24.4819 329.887 39.5354 342.299 55.3077 352.396C105.627 384.612 168.047 398.048 227.442 389.447" fill="#00F2FE"/>
<path d="M50.2009 222.568C71.1532 239.359 90.3748 258.139 107.588 278.636C124.803 299.111 139.959 321.181 152.844 344.536C160.046 357.637 166.515 371.115 172.224 384.91C173.387 387.716 168.756 388.938 167.605 386.163C157.494 361.842 144.985 338.555 130.257 316.636C115.6 294.796 98.8253 274.406 80.1671 255.753C69.614 245.208 58.4796 235.242 46.8142 225.9C44.4232 223.985 47.8295 220.668 50.2009 222.568L50.2009 222.568Z" fill="#164315"/>
</g>
<defs>
<clipPath id="clip0">
<rect width="663" height="390" fill="white"/>
</clipPath>
</defs>
</svg>
