<svg width="724" height="500" viewBox="0 0 724 500" fill="none" xmlns="http://www.w3.org/2000/svg">
<g clip-path="url(#clip0)">
<path opacity="0.4" d="M409.516 68.0729C363.108 68.135 318.439 54.975 275.713 40.3555C232.987 25.736 190.59 9.36519 145.046 2.42807C115.755 -2.03105 82.4469 -1.62116 59.5505 14.5696C37.5108 30.1455 31.1286 55.9252 28.0493 79.7424C25.7336 97.6597 24.6657 116.465 33.3388 132.854C39.3609 144.232 49.6668 153.61 56.9306 164.453C82.2855 202.176 67.0378 250.363 42.3968 288.961C30.8431 307.071 17.3088 324.429 8.57368 343.576C-0.161473 362.723 -3.7437 384.435 5.1653 403.334C13.9936 422.064 33.9348 435.659 55.335 444.944C98.7935 463.836 149.392 467.885 198.63 469.444C307.624 472.903 416.829 465.848 525.742 458.793C566.047 456.185 606.532 453.558 646.004 446C667.92 441.807 690.487 435.585 706.027 421.946C725.751 404.631 729.786 376.361 715.432 356.041C691.363 321.958 627.895 315.53 610.635 278.652C601.118 258.35 609.325 235.067 621.413 215.497C647.339 173.508 691.965 135.898 692.716 88.9339C693.231 56.6829 670.025 25.2206 635.363 11.2035C599.032 -3.4781 549.495 0.297878 524.041 27.6613C497.867 55.8507 450.491 68.0294 409.516 68.0729Z" fill="#558285"/>
<path d="M616.198 400.8C616.198 400.8 608.568 395.763 601.006 399.347C601.006 399.347 603.334 403.831 612.908 403.408L616.198 400.8Z" fill="#1BC115"/>
<path d="M617.167 401.067C617.167 401.067 619.488 409.911 613.665 415.929C613.665 415.929 610.164 412.283 613.665 403.352L617.167 401.067Z" fill="#1BC115"/>
<path d="M626.653 392.577C626.653 392.577 626.088 385.056 609.108 387.553C609.108 387.553 609.027 392.403 614.988 394.701C620.948 396.999 623.679 395.061 626.653 392.577Z" fill="#1BC115"/>
<path d="M627.721 392.528C627.721 392.528 634.898 394.832 628.497 410.762C628.497 410.762 623.76 409.706 622.909 403.365C622.059 397.024 624.579 394.838 627.721 392.528Z" fill="#1BC115"/>
<path d="M637.307 381.858C637.307 381.858 638.281 369.48 620.929 370.747C620.929 370.747 619.687 381.926 634.246 384.833L637.307 381.858Z" fill="#1BC115"/>
<path d="M648.773 367.884C648.773 367.884 646.395 353.855 629.049 358.034C629.049 358.034 628.987 370.164 645.942 371.226L648.773 367.884Z" fill="#1BC115"/>
<path d="M657.155 353.439C657.155 353.439 653.169 339.776 635.984 343.862C635.984 343.862 640.075 356.153 656.012 355.96L657.155 353.439Z" fill="#00F2FE"/>
<path d="M665.114 339.329C665.114 339.329 661.221 325.15 644.626 329.392C644.626 329.392 650.164 342.862 664.015 341.726L665.114 339.329Z" fill="#00F2FE"/>
<path d="M670.242 325.926C670.242 325.926 667.249 308.587 651.778 312.425C651.778 312.425 656.273 328.199 669.106 328.454L670.242 325.926Z" fill="#00F2FE"/>
<path d="M675.053 309.736C675.053 309.736 671.459 292.259 655.807 297.315C655.807 297.315 661.941 313.834 673.942 312.127L675.053 309.736Z" fill="#00F2FE"/>
<path d="M678.008 294.669C678.008 294.669 672.303 277.186 660.203 277.658C660.203 277.658 666.033 296.122 676.996 298.153L678.008 294.669Z" fill="#00F2FE"/>
<path d="M679.921 279.962C679.921 279.962 673.712 258.921 663.866 260.542C663.866 260.542 668.162 276.627 679.573 283.242L679.921 279.962Z" fill="#00F2FE"/>
<path d="M681.001 262.418C681.001 262.418 675.177 244.886 665.48 244.184C665.48 244.184 669.441 261.437 680.808 266.976L681.001 262.418Z" fill="#00F2FE"/>
<path d="M682.174 246.047C682.174 246.047 674.917 228.496 668.516 228.099C668.516 228.099 671.67 245.382 681.553 248.929L682.174 246.047Z" fill="#00F2FE"/>
<path d="M682.975 230.819C682.975 230.819 678.511 211.759 672.098 210.175C672.098 210.175 672.974 225.77 682.329 232.247L682.975 230.819Z" fill="#00F2FE"/>
<path d="M685.396 210.871C685.396 210.871 680.703 195.674 675.506 193.357C675.506 193.357 676.531 211.274 684.198 214.585L685.396 210.871Z" fill="#00F2FE"/>
<path d="M687.402 197.829L688.345 171.037C688.345 171.037 678.629 191.233 686.7 202.53L687.402 197.829Z" fill="#00F2FE"/>
<path d="M694.901 171.18C694.901 171.18 701.898 151.617 703.593 150.524C703.593 150.524 689.873 163.218 691.214 179.545L694.901 171.18Z" fill="#00F2FE"/>
<path d="M637.778 381.765C637.778 381.765 650.083 380.156 649.717 397.552C649.717 397.552 638.598 399.365 634.966 384.976L637.778 381.765Z" fill="#1BC115"/>
<path d="M649.357 367.412C649.357 367.412 663.574 367.369 662.394 385.174C662.394 385.174 650.456 387.311 646.52 370.778L649.357 367.412Z" fill="#00F2FE"/>
<path d="M657.291 354.588C657.291 354.588 670.198 348.532 678.456 364.164C678.456 364.164 666.536 369.207 656.149 357.115L657.291 354.588Z" fill="#00F2FE"/>
<path d="M665.399 339.459C665.399 339.459 678.617 333.019 686.377 348.284C686.377 348.284 672.607 353.029 664.307 341.875L665.399 339.459Z" fill="#00F2FE"/>
<path d="M670.074 326.305C670.074 326.305 682.795 314.151 692.946 326.442C692.946 326.442 679.952 336.447 669.49 329.013L670.074 326.305Z" fill="#00F2FE"/>
<path d="M674.333 309.319C674.333 309.319 687.128 296.899 697.198 309.891C697.198 309.891 682.838 320.095 673.874 311.928L674.333 309.319Z" fill="#00F2FE"/>
<path d="M676.723 294.172C676.723 294.172 686.582 278.646 698.192 282.111C698.192 282.111 687.96 298.55 676.835 297.818L676.723 294.172Z" fill="#00F2FE"/>
<path d="M679.629 279.863C679.629 279.863 689.562 260.312 698.961 263.716C698.961 263.716 691.797 278.745 679.374 283.161L679.629 279.863Z" fill="#00F2FE"/>
<path d="M680.318 261.399C680.318 261.399 690.531 246.01 700.098 247.892C700.098 247.892 691.748 263.498 679.325 265.852L680.318 261.399Z" fill="#00F2FE"/>
<path d="M681.113 245.705C681.113 245.705 689.028 228.434 695.46 228.316C695.46 228.316 691.661 245.463 681.647 248.637L681.113 245.705Z" fill="#00F2FE"/>
<path d="M682.665 230.446C682.665 230.446 691.462 212.958 698.074 212.92C698.074 212.92 693.573 227.875 682.957 231.98L682.665 230.446Z" fill="#00F2FE"/>
<path d="M683.987 211.964C683.987 211.964 690.568 197.493 696.019 195.854C696.019 195.854 692.728 213.492 684.713 215.802L683.987 211.964Z" fill="#00F2FE"/>
<path d="M688.184 197.301L702.891 174.887C702.891 174.887 699.123 196.997 686.036 201.592L688.184 197.301Z" fill="#00F2FE"/>
<path d="M698.279 172.987C698.279 172.987 715.37 161.187 715.991 159.28C715.991 159.28 707.299 175.806 691.158 178.725L698.279 172.987Z" fill="#00F2FE"/>
<path d="M699.303 167.677C699.303 167.677 718.928 148.803 723.938 148.822C723.938 148.822 707.753 149.561 698.831 166.671L699.303 167.677Z" fill="#00F2FE"/>
<path d="M684.18 214.765L684.894 214.858C688.581 185.985 693.958 168.9 700.03 166.807L699.794 166.124C693.356 168.36 687.942 185.184 684.18 214.765Z" fill="#164315"/>
<path d="M678.753 283.813L679.834 283.9C680.063 281.205 680.237 278.447 680.355 275.696C681.386 251.798 682.981 229.85 685.08 213.399L684.459 212.622C682.354 229.111 680.306 251.717 679.275 275.652C679.157 278.385 678.983 281.13 678.753 283.813Z" fill="#164315"/>
<path d="M596.058 414.575C596.244 414.494 615.261 405.998 634.997 385.739C646.56 373.874 656.168 360.249 663.462 345.371C672.589 326.783 678.151 303.941 680.014 281.751L678.89 282.279C674.7 332.087 652.033 366.121 634.01 384.659C614.466 404.737 595.661 413.146 595.475 413.227L596.058 414.575Z" fill="#444053"/>
<path d="M645.297 52.932H48.7481C47.3386 52.932 45.9869 53.4921 44.9903 54.489C43.9936 55.486 43.4337 56.8382 43.4337 58.2481V73.7371H650.611V58.2481C650.611 56.8382 650.051 55.486 649.055 54.489C648.058 53.4921 646.706 52.932 645.297 52.932Z" fill="#3F3D56"/>
<path d="M43.4337 73.7371V422.294C43.4337 425.137 44.5627 427.864 46.5722 429.874C48.5818 431.884 51.3074 433.014 54.1493 433.014H639.895C642.737 433.014 645.463 431.884 647.473 429.874C649.482 427.864 650.611 425.137 650.611 422.294V73.7371H43.4337Z" fill="white"/>
<path opacity="0.8" d="M53.0505 65.6635C54.422 65.6635 55.5338 64.5512 55.5338 63.1793C55.5338 61.8073 54.422 60.6951 53.0505 60.6951C51.679 60.6951 50.5671 61.8073 50.5671 63.1793C50.5671 64.5512 51.679 65.6635 53.0505 65.6635Z" fill="#FA5959"/>
<path opacity="0.8" d="M59.8796 65.6635C61.2511 65.6635 62.3629 64.5512 62.3629 63.1793C62.3629 61.8073 61.2511 60.6951 59.8796 60.6951C58.5081 60.6951 57.3962 61.8073 57.3962 63.1793C57.3962 64.5512 58.5081 65.6635 59.8796 65.6635Z" fill="#FED253"/>
<path opacity="0.8" d="M66.7088 65.6635C68.0803 65.6635 69.1921 64.5512 69.1921 63.1793C69.1921 61.8073 68.0803 60.6951 66.7088 60.6951C65.3373 60.6951 64.2255 61.8073 64.2255 63.1793C64.2255 64.5512 65.3373 65.6635 66.7088 65.6635Z" fill="#8CCF4D"/>
<path opacity="0.05" d="M587.851 131.855H99.8738V346.502H587.851V131.855Z" fill="black"/>
<path d="M584.126 133.482H103.599V343.396H584.126V133.482Z" fill="#3F3D56"/>
<path d="M234.595 187.507C225.14 187.507 215.898 190.312 208.036 195.566C200.175 200.821 194.048 208.289 190.43 217.028C186.811 225.766 185.865 235.381 187.709 244.657C189.554 253.933 194.107 262.454 200.792 269.142C207.478 275.83 215.996 280.384 225.269 282.23C234.542 284.075 244.154 283.128 252.889 279.508C261.624 275.889 269.09 269.76 274.343 261.896C279.596 254.031 282.4 244.786 282.4 235.328C282.4 229.048 281.163 222.829 278.761 217.028C276.358 211.226 272.837 205.954 268.398 201.513C263.959 197.073 258.689 193.55 252.889 191.147C247.089 188.744 240.873 187.507 234.595 187.507ZM243.169 236.477V259.12H226.27V236.477C223.931 234.706 222.208 232.245 221.342 229.442C220.477 226.638 220.514 223.634 221.448 220.852C222.381 218.071 224.165 215.653 226.546 213.94C228.927 212.227 231.786 211.306 234.719 211.306C237.652 211.306 240.511 212.227 242.893 213.94C245.274 215.653 247.057 218.071 247.991 220.852C248.925 223.634 248.961 226.638 248.096 229.442C247.231 232.245 245.507 234.706 243.169 236.477Z" fill="#164315"/>
<path opacity="0.05" d="M234.595 187.507C225.14 187.507 215.898 190.312 208.036 195.566C200.175 200.821 194.048 208.289 190.43 217.028C186.811 225.766 185.865 235.381 187.709 244.657C189.554 253.933 194.107 262.454 200.792 269.142C207.478 275.83 215.996 280.384 225.269 282.23C234.542 284.075 244.154 283.128 252.889 279.508C261.624 275.889 269.09 269.76 274.343 261.896C279.596 254.031 282.4 244.786 282.4 235.328C282.4 229.048 281.163 222.829 278.761 217.028C276.358 211.226 272.837 205.954 268.398 201.513C263.959 197.073 258.689 193.55 252.889 191.147C247.089 188.744 240.873 187.507 234.595 187.507ZM243.169 236.477V259.12H226.27V236.477C223.931 234.706 222.208 232.245 221.342 229.442C220.477 226.638 220.514 223.634 221.448 220.852C222.381 218.071 224.165 215.653 226.546 213.94C228.927 212.227 231.786 211.306 234.719 211.306C237.652 211.306 240.511 212.227 242.893 213.94C245.274 215.653 247.057 218.071 247.991 220.852C248.925 223.634 248.961 226.638 248.096 229.442C247.231 232.245 245.507 234.706 243.169 236.477Z" fill="black"/>
<path d="M234.595 173.844C222.439 173.844 210.556 177.45 200.448 184.206C190.341 190.962 182.463 200.564 177.811 211.799C173.159 223.034 171.942 235.396 174.313 247.323C176.685 259.249 182.539 270.205 191.134 278.803C199.73 287.402 210.682 293.258 222.604 295.63C234.527 298.002 246.885 296.785 258.116 292.131C269.347 287.478 278.946 279.597 285.7 269.486C292.453 259.375 296.058 247.488 296.058 235.328C296.058 219.021 289.582 203.383 278.056 191.852C266.529 180.322 250.896 173.844 234.595 173.844ZM245.615 236.806V265.914H223.886V236.806C220.878 234.529 218.661 231.364 217.548 227.759C216.435 224.153 216.482 220.289 217.682 216.712C218.883 213.135 221.176 210.025 224.239 207.822C227.301 205.619 230.978 204.434 234.75 204.434C238.523 204.434 242.199 205.619 245.262 207.822C248.324 210.025 250.618 213.135 251.818 216.712C253.019 220.289 253.066 224.153 251.953 227.759C250.84 231.364 248.623 234.529 245.615 236.806Z" fill="#00F2FE"/>
<path d="M520.18 227.26H321.512V248.376H520.18V227.26Z" fill="white"/>
<path d="M520.18 265.765H477.342V286.881H520.18V265.765Z" fill="#00F2FE"/>
<path d="M341.069 237.501H337.474L340.671 234.309C340.728 234.25 340.76 234.171 340.76 234.089C340.76 234.006 340.728 233.927 340.671 233.868C340.642 233.839 340.608 233.816 340.57 233.8C340.532 233.785 340.492 233.776 340.451 233.776C340.41 233.776 340.369 233.785 340.331 233.8C340.294 233.816 340.259 233.839 340.23 233.868L337.033 237.067V233.465C337.033 233.382 337 233.303 336.942 233.245C336.884 233.187 336.805 233.154 336.723 233.154C336.641 233.156 336.563 233.189 336.505 233.247C336.447 233.305 336.414 233.383 336.412 233.465V237.067L333.221 233.85C333.192 233.821 333.158 233.797 333.12 233.782C333.082 233.766 333.042 233.758 333.001 233.758C332.96 233.758 332.919 233.766 332.881 233.782C332.844 233.797 332.809 233.821 332.78 233.85C332.723 233.909 332.691 233.988 332.691 234.07C332.691 234.152 332.723 234.231 332.78 234.291L335.978 237.483H332.377C332.295 237.484 332.217 237.518 332.159 237.575C332.101 237.633 332.068 237.711 332.066 237.793C332.066 237.876 332.099 237.955 332.157 238.013C332.216 238.071 332.294 238.104 332.377 238.104H335.978L332.78 241.302C332.723 241.361 332.691 241.44 332.691 241.523C332.691 241.605 332.723 241.684 332.78 241.743C332.84 241.799 332.919 241.83 333.001 241.83C333.083 241.83 333.161 241.799 333.221 241.743L336.412 238.545V242.141C336.412 242.223 336.445 242.302 336.503 242.36C336.561 242.418 336.64 242.451 336.723 242.451C336.805 242.451 336.884 242.418 336.942 242.36C337 242.302 337.033 242.223 337.033 242.141V238.545L340.23 241.743C340.29 241.799 340.369 241.83 340.451 241.83C340.533 241.83 340.611 241.799 340.671 241.743C340.728 241.684 340.76 241.605 340.76 241.523C340.76 241.44 340.728 241.361 340.671 241.302L337.474 238.104H341.069C341.151 238.104 341.23 238.071 341.288 238.013C341.346 237.955 341.379 237.876 341.379 237.793C341.374 237.714 341.339 237.64 341.282 237.586C341.224 237.531 341.148 237.501 341.069 237.501Z" fill="#00F2FE"/>
<path d="M354.106 237.501H350.511L353.709 234.309C353.766 234.25 353.798 234.171 353.798 234.089C353.798 234.006 353.766 233.927 353.709 233.868C353.68 233.839 353.646 233.816 353.608 233.8C353.57 233.785 353.529 233.776 353.488 233.776C353.447 233.776 353.407 233.785 353.369 233.8C353.331 233.816 353.297 233.839 353.268 233.868L350.071 237.067V233.465C350.071 233.382 350.038 233.303 349.98 233.245C349.922 233.187 349.843 233.154 349.76 233.154C349.678 233.156 349.6 233.189 349.543 233.247C349.485 233.305 349.451 233.383 349.45 233.465V237.067L346.259 233.85C346.23 233.821 346.196 233.797 346.158 233.782C346.12 233.766 346.079 233.758 346.038 233.758C345.997 233.758 345.957 233.766 345.919 233.782C345.881 233.797 345.847 233.821 345.818 233.85C345.761 233.909 345.729 233.988 345.729 234.07C345.729 234.152 345.761 234.231 345.818 234.291L349.015 237.483H345.414C345.333 237.484 345.255 237.518 345.197 237.575C345.139 237.633 345.106 237.711 345.104 237.793C345.104 237.876 345.137 237.955 345.195 238.013C345.253 238.071 345.332 238.104 345.414 238.104H349.015L345.818 241.302C345.761 241.361 345.729 241.44 345.729 241.523C345.729 241.605 345.761 241.684 345.818 241.743C345.878 241.799 345.957 241.83 346.038 241.83C346.12 241.83 346.199 241.799 346.259 241.743L349.45 238.545V242.141C349.45 242.223 349.483 242.302 349.541 242.36C349.599 242.418 349.678 242.451 349.76 242.451C349.843 242.451 349.922 242.418 349.98 242.36C350.038 242.302 350.071 242.223 350.071 242.141V238.545L353.268 241.743C353.328 241.799 353.407 241.83 353.488 241.83C353.57 241.83 353.649 241.799 353.709 241.743C353.766 241.684 353.798 241.605 353.798 241.523C353.798 241.44 353.766 241.361 353.709 241.302L350.511 238.104H354.106C354.188 238.104 354.267 238.071 354.326 238.013C354.384 237.955 354.417 237.876 354.417 237.793C354.412 237.714 354.377 237.64 354.319 237.586C354.262 237.531 354.185 237.501 354.106 237.501Z" fill="#00F2FE"/>
<path d="M367.144 237.501H363.549L366.746 234.309C366.804 234.25 366.836 234.171 366.836 234.089C366.836 234.006 366.804 233.927 366.746 233.868C366.717 233.839 366.683 233.816 366.645 233.8C366.607 233.785 366.567 233.776 366.526 233.776C366.485 233.776 366.444 233.785 366.406 233.8C366.369 233.816 366.334 233.839 366.305 233.868L363.108 237.067V233.465C363.108 233.382 363.075 233.303 363.017 233.245C362.959 233.187 362.88 233.154 362.798 233.154C362.716 233.156 362.638 233.189 362.58 233.247C362.522 233.305 362.489 233.383 362.487 233.465V237.067L359.296 233.85C359.267 233.821 359.233 233.797 359.195 233.782C359.157 233.766 359.117 233.758 359.076 233.758C359.035 233.758 358.994 233.766 358.956 233.782C358.919 233.797 358.884 233.821 358.855 233.85C358.798 233.909 358.766 233.988 358.766 234.07C358.766 234.152 358.798 234.231 358.855 234.291L362.053 237.483H358.452C358.37 237.484 358.292 237.518 358.234 237.575C358.176 237.633 358.143 237.711 358.141 237.793C358.141 237.876 358.174 237.955 358.232 238.013C358.291 238.071 358.37 238.104 358.452 238.104H362.053L358.855 241.302C358.798 241.361 358.766 241.44 358.766 241.523C358.766 241.605 358.798 241.684 358.855 241.743C358.915 241.799 358.994 241.83 359.076 241.83C359.158 241.83 359.236 241.799 359.296 241.743L362.487 238.545V242.141C362.487 242.223 362.52 242.302 362.578 242.36C362.636 242.418 362.715 242.451 362.798 242.451C362.88 242.451 362.959 242.418 363.017 242.36C363.075 242.302 363.108 242.223 363.108 242.141V238.545L366.305 241.743C366.365 241.799 366.444 241.83 366.526 241.83C366.608 241.83 366.686 241.799 366.746 241.743C366.804 241.684 366.836 241.605 366.836 241.523C366.836 241.44 366.804 241.361 366.746 241.302L363.549 238.104H367.144C367.226 238.104 367.305 238.071 367.363 238.013C367.421 237.955 367.454 237.876 367.454 237.793C367.449 237.714 367.414 237.64 367.357 237.586C367.299 237.531 367.223 237.501 367.144 237.501Z" fill="#00F2FE"/>
<path d="M380.181 237.501H376.587L379.784 234.309C379.841 234.25 379.873 234.171 379.873 234.089C379.873 234.006 379.841 233.927 379.784 233.868C379.755 233.839 379.721 233.816 379.683 233.8C379.645 233.785 379.604 233.776 379.563 233.776C379.522 233.776 379.482 233.785 379.444 233.8C379.406 233.816 379.372 233.839 379.343 233.868L376.146 237.067V233.465C376.146 233.382 376.113 233.303 376.055 233.245C375.997 233.187 375.918 233.154 375.835 233.154C375.754 233.156 375.675 233.189 375.618 233.247C375.56 233.305 375.527 233.383 375.525 233.465V237.067L372.334 233.85C372.305 233.821 372.271 233.797 372.233 233.782C372.195 233.766 372.154 233.758 372.113 233.758C372.072 233.758 372.032 233.766 371.994 233.782C371.956 233.797 371.922 233.821 371.893 233.85C371.836 233.909 371.804 233.988 371.804 234.07C371.804 234.152 371.836 234.231 371.893 234.291L375.09 237.483H371.489C371.408 237.484 371.33 237.518 371.272 237.575C371.214 237.633 371.181 237.711 371.179 237.793C371.179 237.876 371.212 237.955 371.27 238.013C371.328 238.071 371.407 238.104 371.489 238.104H375.09L371.893 241.302C371.836 241.361 371.804 241.44 371.804 241.523C371.804 241.605 371.836 241.684 371.893 241.743C371.953 241.799 372.032 241.83 372.113 241.83C372.195 241.83 372.274 241.799 372.334 241.743L375.525 238.545V242.141C375.525 242.223 375.558 242.302 375.616 242.36C375.674 242.418 375.753 242.451 375.835 242.451C375.918 242.451 375.997 242.418 376.055 242.36C376.113 242.302 376.146 242.223 376.146 242.141V238.545L379.343 241.743C379.403 241.799 379.482 241.83 379.563 241.83C379.645 241.83 379.724 241.799 379.784 241.743C379.841 241.684 379.873 241.605 379.873 241.523C379.873 241.44 379.841 241.361 379.784 241.302L376.587 238.104H380.181C380.264 238.104 380.342 238.071 380.401 238.013C380.459 237.955 380.492 237.876 380.492 237.793C380.487 237.714 380.452 237.64 380.394 237.586C380.337 237.531 380.26 237.501 380.181 237.501Z" fill="#00F2FE"/>
<path d="M393.219 237.501H389.624L392.821 234.309C392.879 234.25 392.911 234.171 392.911 234.089C392.911 234.006 392.879 233.927 392.821 233.868C392.792 233.839 392.758 233.816 392.72 233.8C392.682 233.785 392.642 233.776 392.601 233.776C392.56 233.776 392.519 233.785 392.482 233.8C392.444 233.816 392.409 233.839 392.381 233.868L389.183 237.067V233.465C389.183 233.382 389.151 233.303 389.092 233.245C389.034 233.187 388.955 233.154 388.873 233.154C388.791 233.156 388.713 233.189 388.655 233.247C388.597 233.305 388.564 233.383 388.562 233.465V237.067L385.371 233.85C385.342 233.821 385.308 233.797 385.27 233.782C385.232 233.766 385.192 233.758 385.151 233.758C385.11 233.758 385.069 233.766 385.032 233.782C384.994 233.797 384.959 233.821 384.93 233.85C384.873 233.909 384.841 233.988 384.841 234.07C384.841 234.152 384.873 234.231 384.93 234.291L388.128 237.483H384.527C384.445 237.484 384.367 237.518 384.309 237.575C384.251 237.633 384.218 237.711 384.217 237.793C384.217 237.876 384.249 237.955 384.307 238.013C384.366 238.071 384.445 238.104 384.527 238.104H388.128L384.93 241.302C384.873 241.361 384.841 241.44 384.841 241.523C384.841 241.605 384.873 241.684 384.93 241.743C384.99 241.799 385.069 241.83 385.151 241.83C385.233 241.83 385.312 241.799 385.371 241.743L388.562 238.545V242.141C388.562 242.223 388.595 242.302 388.653 242.36C388.712 242.418 388.79 242.451 388.873 242.451C388.955 242.451 389.034 242.418 389.092 242.36C389.151 242.302 389.183 242.223 389.183 242.141V238.545L392.381 241.743C392.44 241.799 392.519 241.83 392.601 241.83C392.683 241.83 392.762 241.799 392.821 241.743C392.879 241.684 392.911 241.605 392.911 241.523C392.911 241.44 392.879 241.361 392.821 241.302L389.624 238.104H393.219C393.301 238.104 393.38 238.071 393.438 238.013C393.496 237.955 393.529 237.876 393.529 237.793C393.524 237.714 393.49 237.64 393.432 237.586C393.374 237.531 393.298 237.501 393.219 237.501Z" fill="#00F2FE"/>
<path d="M406.256 237.501H402.662L405.859 234.309C405.916 234.25 405.948 234.171 405.948 234.089C405.948 234.006 405.916 233.927 405.859 233.868C405.83 233.839 405.796 233.816 405.758 233.8C405.72 233.785 405.68 233.776 405.639 233.776C405.598 233.776 405.557 233.785 405.519 233.8C405.481 233.816 405.447 233.839 405.418 233.868L402.221 237.067V233.465C402.221 233.382 402.188 233.303 402.13 233.245C402.072 233.187 401.993 233.154 401.91 233.154C401.829 233.156 401.751 233.189 401.693 233.247C401.635 233.305 401.602 233.383 401.6 233.465V237.067L398.409 233.85C398.38 233.821 398.346 233.797 398.308 233.782C398.27 233.766 398.229 233.758 398.188 233.758C398.147 233.758 398.107 233.766 398.069 233.782C398.031 233.797 397.997 233.821 397.968 233.85C397.911 233.909 397.879 233.988 397.879 234.07C397.879 234.152 397.911 234.231 397.968 234.291L401.165 237.483H397.565C397.483 237.484 397.405 237.518 397.347 237.575C397.289 237.633 397.256 237.711 397.254 237.793C397.254 237.876 397.287 237.955 397.345 238.013C397.403 238.071 397.482 238.104 397.565 238.104H401.165L397.968 241.302C397.911 241.361 397.879 241.44 397.879 241.523C397.879 241.605 397.911 241.684 397.968 241.743C398.028 241.799 398.107 241.83 398.188 241.83C398.27 241.83 398.349 241.799 398.409 241.743L401.6 238.545V242.141C401.6 242.223 401.633 242.302 401.691 242.36C401.749 242.418 401.828 242.451 401.91 242.451C401.993 242.451 402.072 242.418 402.13 242.36C402.188 242.302 402.221 242.223 402.221 242.141V238.545L405.418 241.743C405.478 241.799 405.557 241.83 405.639 241.83C405.72 241.83 405.799 241.799 405.859 241.743C405.916 241.684 405.948 241.605 405.948 241.523C405.948 241.44 405.916 241.361 405.859 241.302L402.662 238.104H406.256C406.339 238.104 406.418 238.071 406.476 238.013C406.534 237.955 406.567 237.876 406.567 237.793C406.562 237.714 406.527 237.64 406.469 237.586C406.412 237.531 406.336 237.501 406.256 237.501Z" fill="#00F2FE"/>
<path d="M419.294 237.501H415.699L418.897 234.309C418.954 234.25 418.986 234.171 418.986 234.089C418.986 234.006 418.954 233.927 418.897 233.868C418.868 233.839 418.833 233.816 418.795 233.8C418.758 233.785 418.717 233.776 418.676 233.776C418.635 233.776 418.595 233.785 418.557 233.8C418.519 233.816 418.485 233.839 418.456 233.868L415.258 237.067V233.465C415.258 233.382 415.226 233.303 415.167 233.245C415.109 233.187 415.03 233.154 414.948 233.154C414.866 233.156 414.788 233.189 414.73 233.247C414.672 233.305 414.639 233.383 414.638 233.465V237.067L411.446 233.85C411.418 233.821 411.383 233.797 411.345 233.782C411.308 233.766 411.267 233.758 411.226 233.758C411.185 233.758 411.145 233.766 411.107 233.782C411.069 233.797 411.035 233.821 411.006 233.85C410.948 233.909 410.916 233.988 410.916 234.07C410.916 234.152 410.948 234.231 411.006 234.291L414.203 237.483H410.602C410.52 237.484 410.442 237.518 410.384 237.575C410.327 237.633 410.293 237.711 410.292 237.793C410.292 237.876 410.324 237.955 410.383 238.013C410.441 238.071 410.52 238.104 410.602 238.104H414.203L411.006 241.302C410.948 241.361 410.916 241.44 410.916 241.523C410.916 241.605 410.948 241.684 411.006 241.743C411.065 241.799 411.144 241.83 411.226 241.83C411.308 241.83 411.387 241.799 411.446 241.743L414.638 238.545V242.141C414.638 242.223 414.67 242.302 414.729 242.36C414.787 242.418 414.866 242.451 414.948 242.451C415.03 242.451 415.109 242.418 415.167 242.36C415.226 242.302 415.258 242.223 415.258 242.141V238.545L418.456 241.743C418.516 241.799 418.594 241.83 418.676 241.83C418.758 241.83 418.837 241.799 418.897 241.743C418.954 241.684 418.986 241.605 418.986 241.523C418.986 241.44 418.954 241.361 418.897 241.302L415.699 238.104H419.294C419.376 238.104 419.455 238.071 419.513 238.013C419.572 237.955 419.604 237.876 419.604 237.793C419.6 237.714 419.565 237.64 419.507 237.586C419.449 237.531 419.373 237.501 419.294 237.501Z" fill="#00F2FE"/>
<path d="M432.331 237.501H428.737L431.934 234.309C431.991 234.25 432.023 234.171 432.023 234.089C432.023 234.006 431.991 233.927 431.934 233.868C431.905 233.839 431.871 233.816 431.833 233.8C431.795 233.785 431.755 233.776 431.714 233.776C431.673 233.776 431.632 233.785 431.594 233.8C431.556 233.816 431.522 233.839 431.493 233.868L428.296 237.067V233.465C428.296 233.382 428.263 233.303 428.205 233.245C428.147 233.187 428.068 233.154 427.986 233.154C427.904 233.156 427.826 233.189 427.768 233.247C427.71 233.305 427.677 233.383 427.675 233.465V237.067L424.484 233.85C424.455 233.821 424.421 233.797 424.383 233.782C424.345 233.766 424.305 233.758 424.264 233.758C424.223 233.758 424.182 233.766 424.144 233.782C424.106 233.797 424.072 233.821 424.043 233.85C423.986 233.909 423.954 233.988 423.954 234.07C423.954 234.152 423.986 234.231 424.043 234.291L427.241 237.483H423.64C423.558 237.484 423.48 237.518 423.422 237.575C423.364 237.633 423.331 237.711 423.329 237.793C423.329 237.876 423.362 237.955 423.42 238.013C423.478 238.071 423.557 238.104 423.64 238.104H427.241L424.043 241.302C423.986 241.361 423.954 241.44 423.954 241.523C423.954 241.605 423.986 241.684 424.043 241.743C424.103 241.799 424.182 241.83 424.264 241.83C424.345 241.83 424.424 241.799 424.484 241.743L427.675 238.545V242.141C427.675 242.223 427.708 242.302 427.766 242.36C427.824 242.418 427.903 242.451 427.986 242.451C428.068 242.451 428.147 242.418 428.205 242.36C428.263 242.302 428.296 242.223 428.296 242.141V238.545L431.493 241.743C431.553 241.799 431.632 241.83 431.714 241.83C431.795 241.83 431.874 241.799 431.934 241.743C431.991 241.684 432.023 241.605 432.023 241.523C432.023 241.44 431.991 241.361 431.934 241.302L428.737 238.104H432.331C432.414 238.104 432.493 238.071 432.551 238.013C432.609 237.955 432.642 237.876 432.642 237.793C432.637 237.714 432.602 237.64 432.545 237.586C432.487 237.531 432.411 237.501 432.331 237.501Z" fill="#00F2FE"/>
<path d="M445.369 237.501H441.774L444.972 234.309C445.029 234.25 445.061 234.171 445.061 234.089C445.061 234.006 445.029 233.927 444.972 233.868C444.943 233.839 444.908 233.816 444.871 233.8C444.833 233.785 444.792 233.776 444.751 233.776C444.71 233.776 444.67 233.785 444.632 233.8C444.594 233.816 444.56 233.839 444.531 233.868L441.334 237.067V233.465C441.334 233.382 441.301 233.303 441.243 233.245C441.184 233.187 441.105 233.154 441.023 233.154C440.941 233.156 440.863 233.189 440.805 233.247C440.747 233.305 440.714 233.383 440.713 233.465V237.067L437.522 233.85C437.493 233.821 437.458 233.797 437.421 233.782C437.383 233.766 437.342 233.758 437.301 233.758C437.26 233.758 437.22 233.766 437.182 233.782C437.144 233.797 437.11 233.821 437.081 233.85C437.023 233.909 436.991 233.988 436.991 234.07C436.991 234.152 437.023 234.231 437.081 234.291L440.278 237.483H436.677C436.595 237.484 436.517 237.518 436.459 237.575C436.402 237.633 436.368 237.711 436.367 237.793C436.367 237.876 436.4 237.955 436.458 238.013C436.516 238.071 436.595 238.104 436.677 238.104H440.278L437.081 241.302C437.023 241.361 436.991 241.44 436.991 241.523C436.991 241.605 437.023 241.684 437.081 241.743C437.141 241.799 437.219 241.83 437.301 241.83C437.383 241.83 437.462 241.799 437.522 241.743L440.713 238.545V242.141C440.713 242.223 440.745 242.302 440.804 242.36C440.862 242.418 440.941 242.451 441.023 242.451C441.105 242.451 441.184 242.418 441.243 242.36C441.301 242.302 441.334 242.223 441.334 242.141V238.545L444.531 241.743C444.591 241.799 444.669 241.83 444.751 241.83C444.833 241.83 444.912 241.799 444.972 241.743C445.029 241.684 445.061 241.605 445.061 241.523C445.061 241.44 445.029 241.361 444.972 241.302L441.774 238.104H445.369C445.451 238.104 445.53 238.071 445.588 238.013C445.647 237.955 445.679 237.876 445.679 237.793C445.675 237.714 445.64 237.64 445.582 237.586C445.524 237.531 445.448 237.501 445.369 237.501Z" fill="#00F2FE"/>
<path d="M458.406 237.501H454.812L458.009 234.309C458.066 234.25 458.098 234.171 458.098 234.089C458.098 234.006 458.066 233.927 458.009 233.868C457.98 233.839 457.946 233.816 457.908 233.8C457.87 233.785 457.83 233.776 457.789 233.776C457.748 233.776 457.707 233.785 457.669 233.8C457.632 233.816 457.597 233.839 457.568 233.868L454.371 237.067V233.465C454.371 233.382 454.338 233.303 454.28 233.245C454.222 233.187 454.143 233.154 454.061 233.154C453.979 233.156 453.901 233.189 453.843 233.247C453.785 233.305 453.752 233.383 453.75 233.465V237.067L450.559 233.85C450.53 233.821 450.496 233.797 450.458 233.782C450.42 233.766 450.38 233.758 450.339 233.758C450.298 233.758 450.257 233.766 450.219 233.782C450.181 233.797 450.147 233.821 450.118 233.85C450.061 233.909 450.029 233.988 450.029 234.07C450.029 234.152 450.061 234.231 450.118 234.291L453.316 237.483H449.715C449.633 237.484 449.555 237.518 449.497 237.575C449.439 237.633 449.406 237.711 449.404 237.793C449.404 237.876 449.437 237.955 449.495 238.013C449.553 238.071 449.632 238.104 449.715 238.104H453.316L450.118 241.302C450.061 241.361 450.029 241.44 450.029 241.523C450.029 241.605 450.061 241.684 450.118 241.743C450.178 241.799 450.257 241.83 450.339 241.83C450.42 241.83 450.499 241.799 450.559 241.743L453.75 238.545V242.141C453.75 242.223 453.783 242.302 453.841 242.36C453.899 242.418 453.978 242.451 454.061 242.451C454.143 242.451 454.222 242.418 454.28 242.36C454.338 242.302 454.371 242.223 454.371 242.141V238.545L457.568 241.743C457.628 241.799 457.707 241.83 457.789 241.83C457.871 241.83 457.949 241.799 458.009 241.743C458.066 241.684 458.098 241.605 458.098 241.523C458.098 241.44 458.066 241.361 458.009 241.302L454.812 238.104H458.406C458.489 238.104 458.568 238.071 458.626 238.013C458.684 237.955 458.717 237.876 458.717 237.793C458.712 237.714 458.677 237.64 458.62 237.586C458.562 237.531 458.486 237.501 458.406 237.501Z" fill="#00F2FE"/>
<path d="M471.444 237.501H467.849L471.047 234.309C471.104 234.25 471.136 234.171 471.136 234.089C471.136 234.006 471.104 233.927 471.047 233.868C471.018 233.839 470.983 233.816 470.946 233.8C470.908 233.785 470.867 233.776 470.826 233.776C470.785 233.776 470.745 233.785 470.707 233.8C470.669 233.816 470.635 233.839 470.606 233.868L467.409 237.067V233.465C467.409 233.382 467.376 233.303 467.318 233.245C467.259 233.187 467.18 233.154 467.098 233.154C467.016 233.156 466.938 233.189 466.88 233.247C466.822 233.305 466.789 233.383 466.788 233.465V237.067L463.597 233.85C463.568 233.821 463.533 233.797 463.496 233.782C463.458 233.766 463.417 233.758 463.376 233.758C463.335 233.758 463.295 233.766 463.257 233.782C463.219 233.797 463.185 233.821 463.156 233.85C463.099 233.909 463.067 233.988 463.067 234.07C463.067 234.152 463.099 234.231 463.156 234.291L466.353 237.483H462.752C462.67 237.484 462.592 237.518 462.535 237.575C462.477 237.633 462.443 237.711 462.442 237.793C462.442 237.876 462.475 237.955 462.533 238.013C462.591 238.071 462.67 238.104 462.752 238.104H466.353L463.156 241.302C463.099 241.361 463.067 241.44 463.067 241.523C463.067 241.605 463.099 241.684 463.156 241.743C463.216 241.799 463.294 241.83 463.376 241.83C463.458 241.83 463.537 241.799 463.597 241.743L466.788 238.545V242.141C466.788 242.223 466.82 242.302 466.879 242.36C466.937 242.418 467.016 242.451 467.098 242.451C467.18 242.451 467.259 242.418 467.318 242.36C467.376 242.302 467.409 242.223 467.409 242.141V238.545L470.606 241.743C470.666 241.799 470.744 241.83 470.826 241.83C470.908 241.83 470.987 241.799 471.047 241.743C471.104 241.684 471.136 241.605 471.136 241.523C471.136 241.44 471.104 241.361 471.047 241.302L467.849 238.104H471.444C471.526 238.104 471.605 238.071 471.663 238.013C471.722 237.955 471.754 237.876 471.754 237.793C471.75 237.714 471.715 237.64 471.657 237.586C471.599 237.531 471.523 237.501 471.444 237.501Z" fill="#00F2FE"/>
<path d="M571.392 313.052C571.375 312.301 571.281 311.554 571.113 310.822C570.554 308.723 569.294 306.183 567.22 305.55C565.079 304.894 563.012 304.02 561.049 302.941C560.677 296.284 562.204 289.471 560.54 283.018C559.919 280.658 558.895 278.397 558.622 275.982C558.28 272.976 559.1 269.771 557.902 267.001C556.958 264.815 554.884 263.275 552.656 262.468C550.427 261.66 548.024 261.443 545.659 261.225C542.679 260.983 533.031 259.841 529.666 262.505C529.434 262.685 529.225 262.894 529.045 263.126C528.971 263.228 528.904 263.336 528.847 263.449L528.816 263.498C528.748 263.628 528.692 263.763 528.648 263.902C528.601 264.055 528.566 264.21 528.542 264.368C528.542 264.418 528.542 264.467 528.542 264.517C528.542 264.567 528.542 264.734 528.542 264.846V265.014C528.542 265.126 528.542 265.237 528.542 265.355C528.542 265.473 528.542 265.442 528.542 265.486C528.586 266.045 528.667 266.604 528.667 267.156C528.673 267.432 528.648 267.707 528.592 267.976C528.385 268.709 528.035 269.393 527.561 269.988L527.45 270.15C527.381 270.249 527.313 270.342 527.251 270.442C527.189 270.541 527.139 270.616 527.09 270.703C527.04 270.79 526.99 270.845 526.947 270.926C526.887 271.029 526.833 271.134 526.785 271.243C526.785 271.305 526.717 271.361 526.692 271.423C526.615 271.591 526.552 271.766 526.506 271.945C526.361 272.484 526.348 273.051 526.469 273.597C526.636 274.293 526.924 274.955 527.319 275.553C527.475 275.808 527.642 276.056 527.816 276.304L528.251 276.894C528.169 277.471 528.126 278.052 528.12 278.633C528.12 280.578 528.562 282.498 529.412 284.247C530.261 285.996 531.497 287.529 533.025 288.732C533.271 291.354 533.244 293.996 532.944 296.613C532.888 297.159 532.82 297.712 532.745 298.259C532.671 298.805 532.615 299.165 532.541 299.619C531.632 299.749 530.706 299.679 529.827 299.414C529.422 299.233 529.008 299.073 528.586 298.935C526.779 298.482 524.935 300.283 523.147 299.737C523.147 299.824 523.098 299.904 523.067 299.985C522.693 299.753 522.264 299.626 521.825 299.619C520.763 299.569 519.9 298.799 519.13 298.072L516.765 295.843C516.611 295.706 516.473 295.552 516.355 295.383C516.228 295.142 516.132 294.885 516.07 294.619C515.672 293.334 514.71 292.309 513.779 291.334C513.602 291.112 513.368 290.942 513.102 290.843C512.999 290.828 512.895 290.828 512.792 290.843C512.728 290.756 512.66 290.674 512.587 290.595C512.426 290.41 512.254 290.236 512.072 290.073C510.942 289.03 510.83 288.135 509.849 286.968C508.993 285.854 508.218 284.682 507.527 283.459C507.446 282.807 507.335 282.136 507.198 281.459C506.885 279.909 506.43 278.392 505.838 276.926L504.597 274.174L504.454 274.317C503.554 272.976 502.591 272.243 501.728 272.417C500.282 272.715 499.568 275.522 499.798 279.192L500.294 282.919C500.294 283.012 500.338 283.105 500.363 283.198C500.273 283.64 500.228 284.089 500.226 284.54C500.226 285.061 500.71 285.446 500.965 285.912C501.372 286.543 501.588 287.279 501.586 288.03C501.555 288.297 501.474 288.552 501.461 288.812C501.495 289.396 501.698 289.957 502.045 290.427L505.149 295.644L505.77 296.737L505.807 296.787C506.003 297.168 506.289 297.496 506.639 297.743C506.761 299.049 507.107 300.325 507.664 301.513C507.769 301.749 507.887 301.972 508.011 302.196C508.846 303.568 509.829 304.845 510.942 306.003L512.419 307.661C513.878 309.288 515.337 310.922 516.92 312.425C517.487 313.028 518.172 313.508 518.932 313.834C519.304 313.983 519.709 314.031 520.106 313.974C520.503 313.916 520.877 313.754 521.192 313.505C521.192 314.275 521.192 315.045 521.192 315.816C521.422 315.83 521.645 315.905 521.836 316.034C522.028 316.163 522.182 316.341 522.282 316.549C522.382 316.757 522.424 316.989 522.405 317.219C522.386 317.449 522.306 317.67 522.173 317.859C520.869 321.206 519.553 324.585 517.578 327.584C518.972 328.41 520.264 329.396 521.428 330.522C522.183 331.359 522.854 332.268 523.433 333.236C523.489 333.696 523.532 334.149 523.557 334.602C524.016 342.005 521.154 349.352 518.59 356.407C517.852 358.407 517.044 360.5 517.107 362.581C516.62 362.881 516.155 363.215 515.716 363.58C516.225 364.909 516.026 366.096 515.97 367.518C515.952 368.37 515.777 369.212 515.455 370.002C515.185 370.549 514.887 371.082 514.561 371.598C512.953 374.436 512.599 377.809 512.276 381.051C512.084 383.007 512.841 385.398 511.954 387.149C510.42 390.155 509.061 393.36 508.849 396.701C508.842 397.453 508.746 398.201 508.564 398.931C508.371 399.552 508.03 400.079 507.856 400.688C507.677 401.504 507.635 402.343 507.732 403.172C507.85 406.149 507.408 409.122 506.428 411.935C505.652 414.152 504.795 416.525 505.404 418.804C503.906 420.378 502.981 422.41 502.778 424.574C502.762 425.127 502.695 425.678 502.579 426.219C502.389 426.773 502.139 427.304 501.834 427.803C500.584 430.08 499.999 432.662 500.145 435.256C498.283 437.783 497.352 440.901 496.799 444C496.246 447.099 496.004 450.254 495.297 453.316C494.353 457.365 492.646 461.458 492.31 465.606C490.299 466.892 489.43 469.382 489.045 471.736C488.66 474.09 488.598 476.562 487.611 478.735C487.102 479.866 486.369 480.878 485.885 482.033C485.545 482.953 485.296 483.903 485.14 484.871C484.842 486.387 484.581 488.076 484.947 489.529C484.421 490.087 483.806 490.555 483.128 490.914C483.228 490.529 483.308 490.144 483.377 489.753C481.775 491.206 478.869 490.697 477.59 492.442C477.206 493.004 477.056 493.694 477.172 494.366C477.288 495.037 477.661 495.637 478.211 496.038C478.611 496.282 479.044 496.468 479.496 496.59C482.6 497.584 485.792 498.584 488.983 498.056C489.36 498.015 489.725 497.899 490.057 497.715C490.472 497.409 490.813 497.014 491.056 496.559C491.534 495.802 492.012 495.044 492.484 494.286C493.628 494.628 494.791 494.899 495.967 495.1C496.085 496.094 496.172 497.087 496.215 498.081C496.836 498.205 497.668 498.242 497.96 497.665C498.048 497.446 498.085 497.21 498.065 496.975C498.065 496.535 498.128 495.951 498.165 495.355H498.289C500.183 495.431 502.068 495.05 503.783 494.243C503.119 488.74 505.311 483.362 507.21 478.158C509.216 472.68 510.935 467.103 512.668 461.526C513.909 457.601 515.281 453.8 516.498 449.869C518.029 444.901 519.567 439.932 521.111 434.964C521.781 432.778 522.458 430.616 523.228 428.443C524.849 424.044 526.772 419.763 528.983 415.631C529.604 414.457 530.225 413.295 530.734 412.078C531.355 410.594 531.795 409.041 532.292 407.507C533.374 404.36 534.677 401.292 536.191 398.328C536.234 398.247 536.266 398.173 536.309 398.098C536.812 400.154 537.315 402.241 537.65 404.309C538.104 406.845 538.139 409.438 537.756 411.985C537.458 413.718 536.893 415.432 536.961 417.189C537.054 419.618 538.352 421.822 538.991 424.164C539.403 425.916 539.636 427.705 539.686 429.505C539.86 432.299 541.375 435.436 540.307 438.026C536.986 446.23 538.594 455.496 536.7 464.11C535.725 468.531 532.739 472.686 532.975 477.207C533.141 480.416 533.422 483.617 533.819 486.809C533.915 487.816 534.177 488.8 534.595 489.722C534.843 490.206 535.128 490.671 535.446 491.113C535.173 491.218 534.943 491.498 534.744 492.088C534.235 493.64 534.744 495.566 536.123 496.435C536.684 496.736 537.29 496.945 537.917 497.056C538.761 497.296 539.635 497.417 540.512 497.416C540.785 497.402 541.057 497.368 541.325 497.317C542.285 497.72 543.265 498.073 544.262 498.373C544.262 498.627 544.312 498.882 544.343 499.137C544.344 499.27 544.374 499.401 544.429 499.522C544.485 499.643 544.565 499.751 544.665 499.838C544.82 499.911 544.992 499.941 545.162 499.925H548.533C548.533 499.646 548.533 499.36 548.533 499.081C548.919 499.121 549.309 499.08 549.678 498.96C550.047 498.84 550.387 498.644 550.675 498.385C550.974 498.005 551.186 497.564 551.296 497.093C552.215 493.976 553.127 490.856 554.034 487.734C555.121 484.284 555.573 480.664 555.369 477.052C554.17 465.606 556.803 454.123 555.946 442.646C555.43 435.748 555.785 428.812 557.001 422.003C557.281 420.462 557.622 418.897 557.746 417.363C558.02 414.469 557.684 411.544 557.889 408.669C557.958 407.662 558.094 406.663 558.218 405.663C559.069 399.457 559.515 393.202 559.553 386.938C559.534 384.863 559.406 382.79 559.168 380.728C559.815 380.563 560.403 380.218 560.863 379.734C561.416 379.014 561.273 378.001 561.267 377.082C561.267 374.884 562.192 372.809 562.937 370.735C563.893 367.874 564.676 364.958 565.283 362.003C565.925 359.622 566.275 357.171 566.326 354.706C566.326 354.457 566.314 354.209 566.289 353.96C566.523 353.798 566.718 353.586 566.86 353.339C567.022 352.975 567.123 352.587 567.158 352.19C567.382 350.607 567.612 349.017 567.835 347.427C568.001 346.288 568.164 345.152 568.325 344.017L570.3 330.236C570.467 329.038 570.641 327.845 570.809 326.653L571.324 323.088C571.38 322.666 571.442 322.243 571.486 321.846C573 319.312 571.554 315.934 571.392 313.052ZM554.922 364.649C554.189 362.91 553.506 361.127 553.68 359.252H553.612C553.775 358.675 553.747 358.06 553.531 357.5C553.339 357.047 553.003 356.662 552.798 356.209C552.578 355.655 552.465 355.065 552.463 354.47C552.309 350.692 552.607 346.91 553.351 343.204C553.432 342.769 553.519 342.328 553.599 341.893C553.86 341.743 554.098 341.557 554.307 341.341C554.634 340.968 554.903 340.55 555.108 340.099C555.809 338.689 556.449 337.254 557.039 335.795C557.231 335.323 557.511 334.776 557.989 334.658C557.889 338.291 558.262 341.999 556.784 345.278C556.503 345.807 556.295 346.371 556.163 346.955C556.027 347.88 556.412 348.818 556.275 349.737C556.207 350.215 556.002 350.656 555.921 351.128C555.86 351.36 555.861 351.604 555.924 351.835C555.987 352.066 556.111 352.277 556.281 352.445C556.364 352.503 556.453 352.549 556.548 352.582C556.511 352.83 556.48 353.085 556.455 353.327C556.405 353.836 556.381 354.314 556.35 354.613C556.207 356.132 556.151 357.658 556.182 359.183C556.182 360.829 556.244 362.475 556.219 364.152C556.242 364.633 556.162 365.114 555.983 365.562C555.86 365.793 555.701 366.002 555.511 366.183C555.331 365.624 555.133 365.133 554.922 364.649Z" fill="url(#paint0_linear)"/>
<path d="M505.914 292.588C507.809 292.2 508.453 287.535 507.354 282.169C506.255 276.803 503.828 272.767 501.934 273.156C500.039 273.544 499.395 278.209 500.494 283.575C501.593 288.941 504.02 292.976 505.914 292.588Z" fill="#FBBEBE"/>
<path d="M534.844 492.206C534.335 493.746 534.844 495.671 536.222 496.51C536.78 496.807 537.381 497.017 538.004 497.131C538.846 497.369 539.717 497.488 540.593 497.485C541.667 497.435 542.697 497.013 543.771 496.864C543.895 496.833 544.027 496.85 544.138 496.913C544.191 496.971 544.232 497.04 544.255 497.115C544.279 497.19 544.285 497.27 544.274 497.348C544.286 497.959 544.331 498.568 544.411 499.174C544.412 499.307 544.441 499.439 544.497 499.56C544.552 499.681 544.633 499.788 544.734 499.876C544.889 499.948 545.06 499.978 545.23 499.963H548.595C548.672 497.006 548.348 494.052 547.633 491.181C547.586 490.961 547.502 490.751 547.385 490.56C547.099 490.247 546.724 490.03 546.311 489.939C545.488 489.597 544.599 489.442 543.709 489.486C542.623 489.628 541.716 490.33 540.791 490.914C539.866 491.498 538.606 492.013 537.482 491.715C536.359 491.417 535.421 490.479 534.844 492.206Z" fill="#3F3D56"/>
<path d="M485.438 489.479C484.492 490.493 483.331 491.282 482.042 491.79L481.47 492.063C481.391 492.093 481.324 492.147 481.278 492.218C481.267 492.267 481.267 492.317 481.278 492.365C481.288 492.413 481.31 492.459 481.34 492.498C481.815 493.233 482.518 493.793 483.34 494.092C484.163 494.392 485.061 494.414 485.897 494.156C486.267 494.063 486.609 493.885 486.897 493.634C487.37 493.073 487.641 492.368 487.666 491.634C487.854 490.877 487.822 490.082 487.573 489.343C486.71 487.399 486.394 488.281 485.438 489.479Z" fill="#FBBEBE"/>
<path d="M498.339 497.131C498.358 497.366 498.322 497.602 498.233 497.82C497.941 498.391 497.128 498.36 496.495 498.236C496.399 496.129 496.144 494.032 495.731 491.964C494.527 491.908 493.658 493.05 493.012 494.075L491.348 496.715C491.107 497.169 490.768 497.564 490.355 497.87C490.022 498.052 489.657 498.168 489.281 498.211C486.102 498.739 482.892 497.739 479.825 496.746C479.374 496.624 478.941 496.44 478.54 496.199C477.993 495.797 477.622 495.199 477.507 494.529C477.391 493.86 477.539 493.172 477.919 492.61C479.204 490.871 482.091 491.367 483.693 489.927C483.526 490.94 483.251 491.933 482.874 492.889C485.015 492.566 486.456 490.604 488.182 489.293C488.615 488.925 489.138 488.677 489.697 488.573C490.115 488.538 490.536 488.582 490.938 488.703C492.928 489.204 494.79 490.121 496.402 491.392C497.053 491.908 498.072 492.634 498.357 493.429C498.661 494.379 498.339 496.118 498.339 497.131Z" fill="#3F3D56"/>
<path d="M541.046 292.222C548.13 292.222 553.872 286.477 553.872 279.391C553.872 272.305 548.13 266.56 541.046 266.56C533.962 266.56 528.219 272.305 528.219 279.391C528.219 286.477 533.962 292.222 541.046 292.222Z" fill="#FBBEBE"/>
<path d="M566.314 355.147C566.262 357.6 565.914 360.037 565.277 362.407C564.67 365.349 563.886 368.253 562.93 371.101C562.192 373.169 561.267 375.244 561.273 377.436C561.273 378.349 561.422 379.361 560.863 380.082C560.365 380.587 559.738 380.946 559.05 381.119C558.707 381.21 558.39 381.381 558.124 381.617C557.859 381.853 557.653 382.148 557.523 382.479C556.94 381.608 556.504 380.647 556.232 379.635C555.118 376.223 554.083 372.793 553.127 369.344C553.04 369.145 553.002 368.928 553.017 368.712C553.032 368.496 553.1 368.286 553.214 368.102C553.372 367.965 553.556 367.861 553.754 367.797C554.391 367.538 554.974 367.163 555.474 366.692C555.709 366.483 555.903 366.233 556.045 365.953C556.226 365.508 556.308 365.029 556.287 364.549C556.287 362.903 556.287 361.264 556.244 359.618C556.218 358.099 556.276 356.579 556.418 355.066C556.418 354.768 556.474 354.29 556.523 353.78C556.617 352.805 556.803 351.675 557.33 351.296C558.119 350.768 560.478 351.476 561.372 351.6C562.912 351.812 564.476 352.06 565.979 352.352C566.197 353.268 566.309 354.205 566.314 355.147Z" fill="#3F3D56"/>
<path d="M514.524 293.756C514.027 294.75 512.835 295.228 511.916 295.855L508.769 298.016C508.558 298.206 508.312 298.351 508.044 298.443C507.776 298.535 507.493 298.571 507.21 298.55C506.954 298.456 506.72 298.311 506.52 298.124C506.321 297.938 506.161 297.713 506.049 297.464C506.051 297.447 506.051 297.43 506.049 297.414L505.398 296.321L502.293 291.117C501.948 290.65 501.748 290.093 501.716 289.514C501.716 289.247 501.809 288.999 501.834 288.732C501.842 287.982 501.626 287.246 501.213 286.62C500.965 286.154 500.468 285.769 500.481 285.248C500.457 284.562 500.575 283.879 500.828 283.242C501.154 282.652 501.621 282.153 502.188 281.788C502.48 281.577 502.778 281.379 503.088 281.167C503.253 281.055 503.435 280.971 503.628 280.919C504.143 280.813 504.653 281.242 505.174 281.261C507.415 282.763 508.278 285.608 510.041 287.657C511.035 288.825 511.134 289.719 512.258 290.763C512.438 290.924 512.612 291.098 512.779 291.278C513.002 291.52 513.19 291.792 513.338 292.085C513.543 292.619 514.778 293.247 514.524 293.756Z" fill="#3F3D56"/>
<path d="M536.539 292.228C537.464 294.184 538.184 296.333 537.917 298.482C537.862 299.064 537.678 299.627 537.377 300.128C536.483 301.5 534.608 301.749 532.975 301.83C532.631 301.801 532.285 301.841 531.956 301.947C531.628 302.054 531.324 302.225 531.063 302.451C530.845 302.768 530.738 303.148 530.759 303.533C530.781 303.917 530.929 304.284 531.181 304.575C531.705 305.135 532.357 305.561 533.081 305.817C535.663 306.953 538.451 307.891 541.257 307.63C542.561 307.506 543.827 307.127 545.125 306.935C546.539 306.781 547.961 306.703 549.384 306.699C551.072 306.636 552.755 306.469 554.437 306.301L558.895 305.86C559.138 305.864 559.375 305.777 559.559 305.618C559.888 305.233 559.466 304.668 559.056 304.376C556.691 302.625 553.68 301.42 552.333 298.786C551.712 297.544 551.519 296.066 551.06 294.725C550.6 293.383 549.868 292.172 549.582 290.806C549.43 289.607 549.362 288.4 549.377 287.191C549.393 285.973 548.95 284.794 548.136 283.888C547.248 283.062 545.963 282.85 544.758 282.801C541.791 282.67 538.631 283.378 536.526 285.471C535.961 286.036 535.477 286.713 534.893 287.223C534.31 287.732 533.515 287.881 533.9 288.552C534.285 289.222 535.042 289.638 535.452 290.228C535.867 290.865 536.23 291.534 536.539 292.228Z" fill="#FBBEBE"/>
<path d="M561.825 310.294C561.042 315.077 559.769 319.766 558.026 324.287C557.149 326.328 556.403 328.423 555.791 330.559C555.313 332.485 555.406 334.546 554.965 336.478C554.419 338.881 553.872 341.291 553.432 343.713C552.692 347.412 552.396 351.185 552.55 354.954C552.551 355.548 552.665 356.136 552.885 356.687C553.09 357.134 553.419 357.519 553.612 357.979C553.756 358.382 553.814 358.811 553.785 359.239C553.755 359.666 553.637 360.083 553.438 360.463C553.119 361.174 552.687 361.828 552.159 362.4C546.373 364.127 540.183 363.562 534.155 363.928C528.598 364.264 522.98 365.406 517.504 364.456C516.883 361.972 517.92 359.37 518.808 356.948C521.384 349.911 524.234 342.583 523.774 335.211C523.726 334.351 523.629 333.495 523.482 332.646C522.582 327.423 523.563 322.014 525.134 316.952C526.109 313.797 526.065 310.437 525.842 307.152C525.731 306.085 525.716 305.011 525.798 303.941C525.888 302.849 526.294 301.807 526.965 300.942C526.965 300.898 527.021 300.855 527.052 300.811C527.083 300.768 527.325 300.774 527.518 300.811C527.567 300.832 527.62 300.843 527.673 300.843C527.726 300.843 527.779 300.832 527.828 300.811L527.897 300.768C527.923 300.749 527.954 300.739 527.987 300.739C528.019 300.739 528.05 300.749 528.077 300.768C528.219 300.855 528.3 301.153 528.611 301.209C529.069 301.278 529.531 301.321 529.995 301.339C530.553 301.356 531.107 301.435 531.646 301.575H531.721C532.528 301.711 533.357 301.641 534.13 301.37C534.644 301.241 535.14 301.05 535.607 300.799C535.744 300.65 536.601 300.513 536.775 300.407C537.339 300.066 537.215 298.463 537.333 297.805C537.398 297.145 537.555 296.497 537.799 295.88C538.082 295.425 538.472 295.045 538.935 294.776C539.398 294.506 539.921 294.354 540.456 294.334C541.525 294.308 542.594 294.404 543.641 294.619C545.957 294.948 548.328 294.892 550.601 295.427C551.743 295.694 552.991 296.097 554.04 295.576C554.326 295.644 554.369 295.892 554.369 296.197C554.342 296.486 554.284 296.771 554.195 297.048C553.798 298.762 555.145 300.339 556.387 301.581C556.911 302.167 557.53 302.66 558.218 303.041C558.839 303.326 559.46 303.444 560.081 303.755C560.584 304.023 561.011 304.414 561.322 304.891C561.68 305.439 561.921 306.054 562.03 306.699C562.163 307.9 562.094 309.116 561.825 310.294Z" fill="#3F3D56"/>
<path opacity="0.1" d="M561.825 310.295C561.042 315.077 559.769 319.766 558.026 324.287C557.149 326.328 556.403 328.423 555.791 330.559C555.313 332.485 555.406 334.546 554.965 336.478C554.419 338.881 553.872 341.291 553.432 343.713C553.301 343.788 553.165 343.856 553.028 343.918C552.256 344.287 551.437 344.55 550.594 344.701C549.081 344.884 547.548 344.834 546.05 344.552L537.19 343.365C533.652 342.887 529.883 342.31 527.257 339.912C525.798 338.596 524.842 336.857 523.793 335.18C523.745 334.32 523.647 333.464 523.501 332.615C522.601 327.392 523.582 321.983 525.152 316.921C526.127 313.766 526.084 310.406 525.86 307.121C525.75 306.054 525.735 304.98 525.817 303.91C525.907 302.818 526.312 301.776 526.984 300.91C527.165 300.857 527.35 300.816 527.536 300.786C527.661 300.761 527.788 300.744 527.915 300.737H528.095C528.304 300.737 528.513 300.762 528.716 300.811C529.139 300.946 529.554 301.105 529.958 301.289H530.032C530.564 301.465 531.124 301.545 531.684 301.525C532.503 301.525 533.347 301.395 534.167 301.339C535.179 301.181 536.215 301.367 537.11 301.867C537.687 302.331 538.234 302.831 538.749 303.364C539.37 303.852 540.069 304.232 540.816 304.488C546.16 306.528 552.089 306.403 557.343 304.14C557.847 303.853 558.42 303.707 559 303.718C559.429 303.802 559.835 303.975 560.192 304.227C560.565 304.444 560.931 304.655 561.31 304.848C561.668 305.395 561.909 306.01 562.018 306.655C562.16 307.87 562.095 309.101 561.825 310.295Z" fill="black"/>
<path d="M567.233 306.183C564.761 305.428 562.385 304.386 560.155 303.078C559.797 302.828 559.391 302.655 558.963 302.569C558.381 302.562 557.808 302.707 557.299 302.991C552.048 305.254 546.121 305.379 540.779 303.339C540.033 303.08 539.334 302.7 538.712 302.215C538.196 301.683 537.648 301.184 537.073 300.718C535.03 299.395 532.205 300.948 529.921 300.097C529.515 299.916 529.101 299.756 528.679 299.619C526.872 299.165 525.035 300.966 523.259 300.42C522.598 302.216 522.11 304.071 521.8 305.96C521.548 308.128 521.413 310.309 521.396 312.493C521.396 313.803 521.334 315.114 521.396 316.424C521.615 316.46 521.824 316.541 522.01 316.662C522.196 316.783 522.355 316.941 522.477 317.126C522.558 317.342 522.592 317.574 522.574 317.805C522.557 318.035 522.49 318.259 522.377 318.461C521.08 321.796 519.764 325.169 517.796 328.156C519.183 328.983 520.47 329.966 521.632 331.087C523.805 333.385 524.873 336.608 527.22 338.732C529.865 341.123 533.633 341.707 537.153 342.179L546.013 343.365C547.513 343.646 549.047 343.699 550.563 343.521C551.404 343.367 552.22 343.102 552.991 342.732C553.494 342.521 553.953 342.218 554.344 341.838C554.672 341.466 554.942 341.047 555.145 340.595C555.847 339.192 556.486 337.757 557.076 336.304C557.281 335.788 557.591 335.186 558.15 335.143C561.44 332.174 564.545 329.131 567.835 326.162C569.157 325.066 570.343 323.815 571.367 322.436C573 320.02 571.516 316.598 571.367 313.679C571.349 312.933 571.256 312.19 571.088 311.462C570.554 309.344 569.3 306.81 567.233 306.183Z" fill="#00F2FE"/>
<path opacity="0.1" d="M514.524 293.756C514.027 294.75 512.835 295.228 511.916 295.855L508.769 298.016C508.558 298.206 508.312 298.351 508.044 298.443C507.776 298.535 507.493 298.571 507.21 298.55C506.954 298.456 506.72 298.311 506.52 298.124C506.321 297.938 506.161 297.713 506.049 297.464C506.049 297.321 506.049 297.166 506.049 297.016C506.025 296.514 506.093 296.011 506.248 295.532C506.556 294.83 507.034 294.215 507.639 293.744C508.808 292.636 510.198 291.79 511.718 291.259C511.955 291.167 512.212 291.141 512.463 291.185C512.559 291.21 512.651 291.25 512.736 291.303C512.958 291.545 513.146 291.817 513.295 292.11C513.543 292.619 514.778 293.247 514.524 293.756Z" fill="black"/>
<path d="M521.937 300.302C520.881 300.252 520.018 299.488 519.248 298.762L516.895 296.576C516.738 296.442 516.6 296.288 516.486 296.116C516.358 295.874 516.263 295.618 516.2 295.352C515.701 294.098 514.919 292.975 513.915 292.073C513.74 291.85 513.506 291.682 513.239 291.588C512.986 291.542 512.726 291.568 512.487 291.663C510.967 292.193 509.577 293.039 508.409 294.147C507.804 294.619 507.327 295.234 507.018 295.936C506.862 296.414 506.794 296.917 506.819 297.42C506.834 299.061 507.202 300.68 507.899 302.165C508.005 302.395 508.123 302.625 508.247 302.848C509.076 304.218 510.054 305.49 511.165 306.643L512.643 308.295C514.095 309.922 515.548 311.549 517.125 313.046C517.69 313.649 518.376 314.127 519.137 314.449C519.519 314.605 519.936 314.653 520.344 314.587C520.751 314.522 521.132 314.345 521.446 314.077C521.743 313.732 521.967 313.331 522.104 312.897C523.06 310.413 523.967 307.829 524.023 305.152C524.036 304.08 523.99 303.008 523.886 301.941C523.793 300.811 522.992 300.37 521.937 300.302Z" fill="#00F2FE"/>
<path d="M559.559 387.249C559.523 393.496 559.079 399.734 558.231 405.924C558.107 406.923 557.97 407.923 557.902 408.923C557.697 411.824 558.032 414.736 557.759 417.618C557.616 419.177 557.293 420.723 557.02 422.245C555.807 429.036 555.452 435.953 555.965 442.832C556.821 454.278 554.195 465.731 555.387 477.145C555.532 479.365 555.409 481.594 555.021 483.784C554.799 485.143 554.477 486.484 554.059 487.796C553.152 490.906 552.242 494.011 551.327 497.112C551.219 497.584 551.007 498.025 550.706 498.404C550.389 498.678 550.018 498.881 549.616 499C549.215 499.119 548.793 499.151 548.378 499.093C544.796 498.981 541.425 497.435 538.171 495.926C537.797 495.778 537.451 495.568 537.147 495.305C536.47 494.603 536.526 493.498 536.228 492.572C535.93 491.647 535.123 490.777 534.664 489.827C534.286 488.928 534.057 487.974 533.987 487.001C533.573 483.822 533.292 480.629 533.143 477.425C532.907 472.916 535.887 468.767 536.868 464.383C538.73 455.763 537.153 446.522 540.462 438.342C541.505 435.759 539.991 432.629 539.842 429.846C539.788 428.051 539.555 426.266 539.146 424.518C538.525 422.183 537.215 419.984 537.122 417.562C537.054 415.811 537.619 414.103 537.911 412.376C538.298 409.835 538.262 407.248 537.805 404.719C537.476 402.632 536.973 400.545 536.47 398.508L536.359 398.738C534.846 401.695 533.545 404.757 532.466 407.898C531.969 409.42 531.535 410.973 530.914 412.451C530.405 413.693 529.778 414.829 529.163 415.997C526.959 420.114 525.04 424.379 523.42 428.76C522.651 430.908 521.974 433.107 521.303 435.262L516.703 450.167C515.461 454.086 514.102 457.874 512.885 461.787C511.165 467.376 509.445 472.916 507.446 478.381C505.584 483.567 503.367 488.939 504.032 494.417C502.32 495.222 500.44 495.603 498.55 495.528C495.35 495.245 492.211 494.483 489.237 493.268C488.051 492.827 486.822 492.33 486.021 491.355C484.643 489.672 484.984 487.206 485.4 485.064C485.557 484.098 485.807 483.15 486.145 482.232C486.617 481.089 487.387 480.077 487.871 478.946C488.846 476.779 488.908 474.326 489.293 471.972C489.678 469.618 490.535 467.134 492.546 465.855C492.888 461.719 494.589 457.638 495.526 453.595C496.234 450.533 496.47 447.385 497.029 444.28C497.587 441.174 498.488 438.069 500.363 435.554C500.215 432.96 500.8 430.377 502.051 428.101C502.354 427.601 502.601 427.07 502.79 426.518C502.906 425.978 502.972 425.429 502.989 424.878C503.194 422.72 504.116 420.693 505.609 419.121C504.988 416.854 505.851 414.488 506.627 412.289C507.604 409.484 508.046 406.52 507.931 403.551C507.834 402.722 507.874 401.883 508.049 401.067C508.222 400.446 508.564 399.918 508.762 399.322C508.94 398.592 509.033 397.844 509.042 397.092C509.284 393.732 510.644 390.565 512.146 387.565C513.04 385.814 512.283 383.435 512.469 381.485C512.792 378.243 513.146 374.89 514.754 372.064C515.052 371.53 515.374 371.021 515.641 370.468C515.965 369.679 516.14 368.836 516.157 367.984C516.212 366.561 516.411 365.381 515.902 364.059C519.224 361.295 523.756 360.519 528.077 360.332C532.398 360.146 536.768 360.537 540.996 359.618C542.238 359.339 543.48 358.954 544.79 358.767C547.763 358.333 550.781 359.01 553.717 359.68C553.512 361.543 554.195 363.332 554.959 365.065C557.94 372.083 559.504 379.623 559.559 387.249Z" fill="#33313F"/>
<path opacity="0.1" d="M544.939 388.671L537.805 404.719C537.476 402.632 536.973 400.545 536.47 398.508L536.359 398.738V398.403L540.245 389.851L544.939 388.671Z" fill="black"/>
<path opacity="0.1" d="M566.314 355.147C565.902 355.455 565.411 355.638 564.898 355.674C564.112 355.702 563.327 355.595 562.577 355.358L556.989 353.96C556.814 353.917 556.643 353.857 556.48 353.78C556.573 352.805 556.759 351.675 557.287 351.296C558.075 350.768 560.435 351.476 561.329 351.6C562.868 351.812 564.433 352.06 565.935 352.352C566.168 353.266 566.295 354.204 566.314 355.147Z" fill="black"/>
<path d="M571.039 318.194C571.157 318.71 571.324 319.219 571.423 319.741C571.59 321.021 571.546 322.319 571.293 323.585L570.784 327.137L570.275 330.708L568.307 344.452L567.823 347.856L567.14 352.607C567.107 353.002 567.007 353.389 566.842 353.749C566.638 354.087 566.354 354.369 566.015 354.569C565.676 354.77 565.292 354.883 564.898 354.898C564.112 354.923 563.327 354.816 562.577 354.581L556.989 353.178C556.744 353.134 556.511 353.039 556.306 352.898C556.135 352.732 556.012 352.522 555.949 352.292C555.886 352.062 555.885 351.819 555.946 351.588C556.027 351.116 556.232 350.675 556.3 350.203C556.436 349.284 556.052 348.34 556.188 347.427C556.322 346.846 556.531 346.284 556.809 345.756C558.671 341.639 557.591 336.832 558.224 332.36C558.794 328.841 560.28 325.534 562.533 322.771C563.923 321.028 565.52 319.459 567.289 318.101C567.984 317.561 569.089 316.449 569.964 316.238C571.088 316.002 570.852 317.412 571.039 318.194Z" fill="#00F2FE"/>
<path d="M528.753 264.697C528.344 266.001 528.983 267.436 528.691 268.765C528.375 270.231 526.996 271.249 526.605 272.721C525.984 274.963 527.884 277.006 529.275 278.869C534.428 285.788 533.751 295.364 531.988 303.805C530.569 310.576 528.607 317.222 526.121 323.678C525.345 325.684 524.488 327.721 522.961 329.224C525.817 328.404 528.853 327.578 531.715 328.373C535.34 329.379 538.469 332.901 542.145 332.099C544.355 331.609 545.907 329.646 547.894 328.56C551.619 326.554 556.107 327.814 560.261 328.46C561.156 328.671 562.092 328.624 562.961 328.324C563.626 327.966 564.189 327.447 564.6 326.814C566.454 324.435 567.564 321.562 567.791 318.554C567.89 317.057 567.669 315.555 567.143 314.15C566.618 312.744 565.8 311.466 564.743 310.4C563.862 309.568 562.806 308.897 562.129 307.916C561.471 306.77 561.119 305.474 561.105 304.152C560.615 297.321 562.278 290.346 560.565 283.738C559.944 281.385 558.932 279.13 558.659 276.721C558.317 273.721 559.131 270.51 557.939 267.765C557.001 265.585 554.934 264.039 552.705 263.244C550.476 262.449 548.092 262.225 545.727 262.002C542.325 261.716 530.175 260.257 528.753 264.697Z" fill="#33313F"/>
<g opacity="0.1">
<path opacity="0.1" d="M531.988 303.805C530.576 310.548 528.624 317.167 526.152 323.597C526.58 322.747 526.94 321.852 527.282 320.964C529.771 314.509 531.733 307.863 533.149 301.091C534.918 292.644 535.595 283.08 530.442 276.155C529.2 274.503 527.605 272.715 527.66 270.777C527.202 271.363 526.845 272.022 526.605 272.727C525.984 274.969 527.884 277.012 529.275 278.876C534.428 285.788 533.751 295.364 531.988 303.805Z" fill="black"/>
<path opacity="0.1" d="M528.766 268.138C529.264 267.519 529.635 266.808 529.858 266.045C529.954 265.122 529.929 264.191 529.784 263.275C529.306 263.635 528.947 264.13 528.753 264.697C528.387 265.796 528.809 266.989 528.766 268.138Z" fill="black"/>
<path opacity="0.1" d="M565.768 324.082C565.356 324.713 564.793 325.23 564.129 325.585C563.261 325.891 562.322 325.939 561.428 325.721C557.274 325.1 552.736 323.821 549.061 325.827C547.068 326.908 545.522 328.87 543.306 329.367C539.637 330.187 536.508 326.665 532.882 325.641C530.312 324.926 527.605 325.516 525.016 326.262C524.501 327.359 523.807 328.362 522.961 329.23C525.817 328.41 528.853 327.584 531.715 328.379C535.34 329.386 538.469 332.907 542.145 332.106C544.355 331.615 545.907 329.653 547.894 328.566C551.619 326.56 556.107 327.82 560.261 328.466C561.156 328.678 562.092 328.63 562.961 328.33C563.626 327.972 564.189 327.453 564.6 326.821C565.725 325.336 566.594 323.673 567.171 321.902C566.756 322.661 566.287 323.39 565.768 324.082Z" fill="black"/>
</g>
</g>
<defs>
<linearGradient id="paint0_linear" x1="477.174" y1="380.343" x2="572.162" y2="380.343" gradientUnits="userSpaceOnUse">
<stop stop-color="#808080" stop-opacity="0.25"/>
<stop offset="0.54" stop-color="#808080" stop-opacity="0.12"/>
<stop offset="1" stop-color="#808080" stop-opacity="0.1"/>
</linearGradient>
<clipPath id="clip0">
<rect width="724" height="500" fill="white"/>
</clipPath>
</defs>
</svg>
